# xmcd CD database file
#
# Track frame offsets:
#	150
#	37569
#	73696
#	93326
#	125400
#	151869
#	173059
#	196046
#	228197
#	263353
#	294946
#
# Disc length: 4449 seconds
#
# Revision: 0
# Processed by: cddbd v1.5.2PL0 Copyright (c) Steve Scherf et al.
# Submitted via: CDex 1.70beta2
#
DISCID=79115f0b
DTITLE=Mike Stern - Who Let the Cats Out
DYEAR=1900
DGENRE=Jazz
TTITLE0=Tumble Home
TTITLE1=KT
TTITLE2=Good Question
TTITLE3=Language
TTITLE4=We're With You
TTITLE5=Leni Goes Shopping
TTITLE6=Roll With It
TTITLE7=Texas
TTITLE8=Who Let The Cats Out?
TTITLE9=All You Need
TTITLE10=Blue Runway
EXTD=
EXTT0=
EXTT1=
EXTT2=
EXTT3=
EXTT4=
EXTT5=
EXTT6=
EXTT7=
EXTT8=
EXTT9=
EXTT10=
PLAYORDER=
